<svg width="52" height="52" viewBox="0 0 52 52" fill="none" xmlns="http://www.w3.org/2000/svg">
    <g clip-path="url(#clip0_180_152)">
        <path d="M11.0738 33.572L0 36.9813L6.019 0L11.0738 33.572Z" fill="url(#paint0_linear_180_152)"/>
        <path d="M0 36.9813L11.0738 33.572L19.2595 52L0 36.9813Z" fill="url(#paint1_linear_180_152)"/>
        <path d="M26 15.985V34.2033L6.01898 0L26 15.985Z" fill="url(#paint2_linear_180_152)"/>
        <path d="M6.01898 0L7.15215 7.52123L26 34.2033L6.01898 0Z" fill="url(#paint3_linear_180_152)"/>
    </g>
    <g clip-path="url(#clip1_180_152)">
        <path d="M40.9262 33.572L52 36.9813L45.981 0L40.9262 33.572Z" fill="url(#paint4_linear_180_152)"/>
        <path d="M52 36.9813L40.9262 33.572L32.7405 52L52 36.9813Z" fill="url(#paint5_linear_180_152)"/>
        <path d="M25.9999 15.985V34.2033L45.9809 0L25.9999 15.985Z" fill="url(#paint6_linear_180_152)"/>
        <path d="M25.9999 15.985V34.2033L45.9809 0L25.9999 15.985Z" fill="black" fill-opacity="0.2"/>
        <path d="M45.9809 0L44.8477 7.52123L25.9999 34.2033L45.9809 0Z" fill="url(#paint7_linear_180_152)"/>
    </g>
    <defs>
        <linearGradient id="paint0_linear_180_152" x1="5.53692" y1="0" x2="5.53692" y2="36.9813" gradientUnits="userSpaceOnUse">
            <stop stop-color="#FFEBA2"/>
            <stop offset="0.5" stop-color="#21E7B2"/>
            <stop offset="1" stop-color="#004536"/>
        </linearGradient>
        <linearGradient id="paint1_linear_180_152" x1="9.62975" y1="33.572" x2="9.62975" y2="52" gradientUnits="userSpaceOnUse">
            <stop stop-color="#FFEBA2"/>
            <stop offset="0.5" stop-color="#21E7B2"/>
            <stop offset="1" stop-color="#004536"/>
        </linearGradient>
        <linearGradient id="paint2_linear_180_152" x1="16.0095" y1="0" x2="16.0095" y2="34.2033" gradientUnits="userSpaceOnUse">
            <stop stop-color="#FFEBA2"/>
            <stop offset="0.5" stop-color="#21E7B2"/>
            <stop offset="1" stop-color="#004536"/>
        </linearGradient>
        <linearGradient id="paint3_linear_180_152" x1="16.0095" y1="0" x2="16.0095" y2="34.2033" gradientUnits="userSpaceOnUse">
            <stop stop-color="#004536"/>
            <stop offset="0.504808" stop-color="#21E7B2"/>
            <stop offset="1" stop-color="#63F1D2"/>
        </linearGradient>
        <linearGradient id="paint4_linear_180_152" x1="46.4631" y1="0" x2="46.4631" y2="36.9813" gradientUnits="userSpaceOnUse">
            <stop stop-color="#FFEBA2"/>
            <stop offset="0.5" stop-color="#21E7B2"/>
            <stop offset="1" stop-color="#004536"/>
        </linearGradient>
        <linearGradient id="paint5_linear_180_152" x1="42.3703" y1="33.572" x2="42.3703" y2="52" gradientUnits="userSpaceOnUse">
            <stop stop-color="#FFEBA2"/>
            <stop offset="0.5" stop-color="#21E7B2"/>
            <stop offset="1" stop-color="#004536"/>
        </linearGradient>
        <linearGradient id="paint6_linear_180_152" x1="35.9904" y1="0" x2="35.9904" y2="34.2033" gradientUnits="userSpaceOnUse">
            <stop stop-color="#FFEBA2"/>
            <stop offset="0.5" stop-color="#21E7B2"/>
            <stop offset="1" stop-color="#004536"/>
        </linearGradient>
        <linearGradient id="paint7_linear_180_152" x1="35.9904" y1="0" x2="35.9904" y2="34.2033" gradientUnits="userSpaceOnUse">
            <stop stop-color="#004536"/>
            <stop offset="0.504808" stop-color="#21E7B2"/>
            <stop offset="1" stop-color="#63F1D2"/>
        </linearGradient>
        <clipPath id="clip0_180_152">
            <rect width="26" height="52" fill="white"/>
        </clipPath>
        <clipPath id="clip1_180_152">
            <rect width="26" height="52" fill="white" transform="matrix(-1 0 0 1 52 0)"/>
        </clipPath>
    </defs>
</svg>
