<svg xmlns="http://www.w3.org/2000/svg" width="42" height="42" viewBox="0 0 42 42" fill="none">
    <path d="M29.9148 12.5054C30.9527 12.1288 31.4679 11.9933 31.7533 11.9448C31.7554 12.036 31.7533 12.11 31.7486 12.1586C31.3416 16.4354 29.5583 26.9575 28.6424 31.8537C28.428 33.0003 28.2635 33.5461 27.1561 32.8956C26.4272 32.4672 25.7676 31.9282 25.061 31.465C22.7429 29.9453 19.4248 27.6822 19.6972 27.8184C17.4151 26.3144 18.3704 25.3936 19.6444 24.1654C19.8507 23.9666 20.0653 23.7598 20.2758 23.541C20.3698 23.4434 20.8295 23.0158 21.4777 22.4133C23.5569 20.4803 27.5747 16.7449 27.6762 16.3127C27.6928 16.2418 27.7082 15.9774 27.5511 15.8378C27.3941 15.6983 27.1624 15.746 26.9951 15.784C26.758 15.8378 22.9818 18.3337 15.6665 23.2717C14.5946 24.0077 13.6238 24.3665 12.7539 24.3476L12.7617 24.3514C11.6159 23.9474 10.4733 23.5995 9.32471 23.2496C8.57013 23.0197 7.81296 22.789 7.05057 22.5412C6.86411 22.4807 6.68218 22.4231 6.5112 22.3694C14.4334 18.9182 19.71 16.6459 22.3541 15.5461C26.1945 13.9488 28.4724 13.0288 29.9148 12.5054ZM34.1543 9.13075C33.7109 8.77092 33.2235 8.60577 32.8849 8.52488C32.5352 8.44136 32.2029 8.41448 31.9509 8.41892C31.1172 8.4336 30.2217 8.67071 28.7209 9.21529C27.19 9.77083 24.8375 10.7225 21.0099 12.3145C18.3114 13.4369 12.939 15.7512 4.90614 19.2509C4.20056 19.533 3.55376 19.8531 3.04272 20.2325C2.57083 20.583 1.91028 21.21 1.78944 22.1741C1.69816 22.9021 1.91044 23.5741 2.34094 24.1033C2.71572 24.5639 3.19586 24.8437 3.56151 25.0208C4.10429 25.2837 4.83458 25.5126 5.47641 25.7138C6.47937 26.0281 7.48002 26.3492 8.48513 26.6569C11.5968 27.6094 14.1584 28.3934 16.9769 30.2507C19.0441 31.6131 21.0715 33.0348 23.1423 34.3921C23.8976 34.8871 24.6035 35.4554 25.3833 35.9133C26.2351 36.4138 27.318 36.8702 28.6361 36.7488C30.6281 36.5656 31.6644 34.733 32.0827 32.4972C32.9964 27.6134 34.8088 16.9453 35.2329 12.4902C35.2882 11.9087 35.2234 11.2569 35.1695 10.9422C35.114 10.6181 34.9445 9.77199 34.1543 9.13075Z" fill="white"/>
    <path d="M29.9148 12.5054C30.9527 12.1288 31.4679 11.9933 31.7533 11.9448C31.7554 12.036 31.7533 12.11 31.7486 12.1586C31.3416 16.4354 29.5583 26.9575 28.6424 31.8537C28.428 33.0003 28.2635 33.5461 27.1561 32.8956C26.4272 32.4672 25.7676 31.9282 25.061 31.465C22.7429 29.9453 19.4248 27.6822 19.6972 27.8184C17.4151 26.3144 18.3704 25.3936 19.6444 24.1654C19.8507 23.9666 20.0653 23.7598 20.2758 23.541C20.3698 23.4434 20.8295 23.0158 21.4777 22.4133C23.5569 20.4803 27.5747 16.7449 27.6762 16.3127C27.6928 16.2418 27.7082 15.9774 27.5511 15.8378C27.3941 15.6983 27.1624 15.746 26.9951 15.784C26.758 15.8378 22.9818 18.3337 15.6665 23.2717C14.5946 24.0077 13.6238 24.3665 12.7539 24.3476L12.7617 24.3514C11.6159 23.9474 10.4733 23.5995 9.32471 23.2496C8.57013 23.0197 7.81296 22.789 7.05057 22.5412C6.86411 22.4807 6.68218 22.4231 6.5112 22.3694C14.4334 18.9182 19.71 16.6459 22.3541 15.5461C26.1945 13.9488 28.4724 13.0288 29.9148 12.5054ZM34.1543 9.13075C33.7109 8.77092 33.2235 8.60577 32.8849 8.52488C32.5352 8.44136 32.2029 8.41448 31.9509 8.41892C31.1172 8.4336 30.2217 8.67071 28.7209 9.21529C27.19 9.77083 24.8375 10.7225 21.0099 12.3145C18.3114 13.4369 12.939 15.7512 4.90614 19.2509C4.20056 19.533 3.55376 19.8531 3.04272 20.2325C2.57083 20.583 1.91028 21.21 1.78944 22.1741C1.69816 22.9021 1.91044 23.5741 2.34094 24.1033C2.71572 24.5639 3.19586 24.8437 3.56151 25.0208C4.10429 25.2837 4.83458 25.5126 5.47641 25.7138C6.47937 26.0281 7.48002 26.3492 8.48513 26.6569C11.5968 27.6094 14.1584 28.3934 16.9769 30.2507C19.0441 31.6131 21.0715 33.0348 23.1423 34.3921C23.8976 34.8871 24.6035 35.4554 25.3833 35.9133C26.2351 36.4138 27.318 36.8702 28.6361 36.7488C30.6281 36.5656 31.6644 34.733 32.0827 32.4972C32.9964 27.6134 34.8088 16.9453 35.2329 12.4902C35.2882 11.9087 35.2234 11.2569 35.1695 10.9422C35.114 10.6181 34.9445 9.77199 34.1543 9.13075Z" fill="#21E7B2"/>
</svg>
