<svg xmlns="http://www.w3.org/2000/svg" width="42" height="42" viewBox="0 0 42 42" fill="none">
    <path d="M18.3545 25.6393L26.6875 36.75H38.9375L25.1855 18.414L36.6289 5.25H31.9914L23.0375 15.5501L15.3125 5.25H3.0625L16.2065 22.7754L4.05851 36.75H8.69605L18.3545 25.6393ZM28.4375 33.25L10.0625 8.75H13.5625L31.9375 33.25H28.4375Z" fill="white"/>
    <path d="M18.3545 25.6393L26.6875 36.75H38.9375L25.1855 18.414L36.6289 5.25H31.9914L23.0375 15.5501L15.3125 5.25H3.0625L16.2065 22.7754L4.05851 36.75H8.69605L18.3545 25.6393ZM28.4375 33.25L10.0625 8.75H13.5625L31.9375 33.25H28.4375Z" fill="#21E7B2"/>
</svg>
